<?xml version="1.0" encoding="UTF-8" standalone="no"?>
<svg
   width="48.307293"
   height="71.718803"
   viewBox="0 0 48.307293 71.718803"
   fill="none"
   version="1.1"
   id="svg4"
   sodipodi:docname="1504005686e74e10f54d9526c8c57e6b.svg"
   xmlns:inkscape="http://www.inkscape.org/namespaces/inkscape"
   xmlns:sodipodi="http://sodipodi.sourceforge.net/DTD/sodipodi-0.dtd"
   xmlns="http://www.w3.org/2000/svg"
   xmlns:svg="http://www.w3.org/2000/svg">
  <defs
     id="defs8" />
  <sodipodi:namedview
     id="namedview6"
     pagecolor="#ffffff"
     bordercolor="#666666"
     borderopacity="1.0"
     inkscape:pageshadow="2"
     inkscape:pageopacity="0.0"
     inkscape:pagecheckerboard="0" />
  <path
     d="m 30.025992,13.2812 c -1.875,0 -3.4895,-0.625 -4.8437,-1.875 -1.25,-1.3541 -1.875,-2.91662 -1.875,-4.68745 0,-1.875 0.625,-3.4375 1.875,-4.6875 C 26.536492,0.677083 28.150992,0 30.025992,0 c 1.875,0 3.4376,0.677083 4.6876,2.03125 1.3541,1.25 2.0312,2.8125 2.0312,4.6875 0,1.77083 -0.6771,3.33335 -2.0312,4.68745 -1.25,1.25 -2.8126,1.875 -4.6876,1.875 z m 13.2813,17.6563 V 25 h 5 v 46.7188 h -5 V 37.8125 c -2.6042,-0.5208 -5.0521,-1.4583 -7.3437,-2.8125 -2.2917,-1.4583 -4.2709,-3.125 -5.9376,-5 l -2.0312,10 7.0312,6.7188 v 25 h -6.7187 v -20 L 21.432292,45 15.338592,71.7188 H 8.3072917 c 0,0 0.15625,-0.8855 0.46875,-2.6563 0.41667,-1.7708 0.88542,-4.1146 1.4062503,-7.0313 0.625,-3.0208 1.3021,-6.302 2.0313,-9.8437 0.7291,-3.5417 1.4062,-7.0833 2.0312,-10.625 0.7292,-3.6458 1.4062,-7.0313 2.0312,-10.1563 0.625,-3.125 1.1459,-5.7291 1.5626,-7.8124 0.4166,-2.0834 0.677,-3.3334 0.7812,-3.75 0.3125,-1.5626 1.0417,-2.7605 2.1875,-3.5938 1.25,-0.8333 2.5,-1.25 3.75,-1.25 1.25,0 2.3958,0.3125 3.4375,0.9375 1.1458,0.5208 2.0312,1.3021 2.6562,2.3437 l 3.4376,5.3126 c 0.9374,1.7708 2.1874,3.2812 3.75,4.5312 1.6666,1.25 3.4895,2.1875 5.4687,2.8125 z M 9.8697917,38.75 14.244792,15.9375 l -3.75,-0.7813 c -1.8750003,-0.4166 -3.5937503,-0.1041 -5.1562503,0.9376 -1.45833,1.0416 -2.34375,2.5 -2.65625,4.375 L 0.02604166,33.4375 c -0.1041667,0.9375 0.104167,1.8229 0.625,2.6563 0.52083004,0.7291 1.19792004,1.1458 2.03125004,1.25 z"
     fill="#8c8c8c"
     id="path2" />
</svg>
