<?xml version="1.0" encoding="UTF-8" standalone="no"?>
<svg
   width="73.4375"
   height="73.4375"
   viewBox="0 0 73.4375 73.4375"
   fill="none"
   version="1.1"
   id="svg4"
   sodipodi:docname="4c08eea80b3a7c0a705c5043f29e5249.svg"
   xmlns:inkscape="http://www.inkscape.org/namespaces/inkscape"
   xmlns:sodipodi="http://sodipodi.sourceforge.net/DTD/sodipodi-0.dtd"
   xmlns="http://www.w3.org/2000/svg"
   xmlns:svg="http://www.w3.org/2000/svg">
  <defs
     id="defs8" />
  <sodipodi:namedview
     id="namedview6"
     pagecolor="#ffffff"
     bordercolor="#666666"
     borderopacity="1.0"
     inkscape:pageshadow="2"
     inkscape:pageopacity="0.0"
     inkscape:pagecheckerboard="0" />
  <path
     d="M 30,66.5625 V 60 c -1.7708,0 -3.3333,-0.625 -4.6875,-1.875 -1.25,-1.3542 -1.875,-2.9167 -1.875,-4.6875 V 50 L 7.34375,34.0625 c -0.41667,1.6667 -0.625,3.6458 -0.625,5.9375 0,6.7708 2.23958,12.7083 6.71875,17.8125 4.4792,5 10,7.9167 16.5625,8.75 z M 59.8438,36.7188 h 6.7187 c 0.1042,0.7291 0.1563,1.8229 0.1563,3.2812 0,9.2708 -3.2813,17.1875 -9.8438,23.75 -6.4583,6.4583 -14.2708,9.6875 -23.4375,9.6875 -9.2708,0 -17.1875,-3.2292 -23.75,-9.6875 C 3.22917,57.1875 0,49.2708 0,40 0,30.8333 3.22917,23.0208 9.6875,16.5625 16.25,10 24.1667,6.71875 33.4375,6.71875 c 3.2292,0 6.5625,0.52083 10,1.5625 v 8.43755 c 0,1.7708 -0.6771,3.3333 -2.0313,4.6874 -1.3541,1.3542 -2.9166,2.0313 -4.6874,2.0313 H 30 V 30 c 0,0.9375 -0.3125,1.7708 -0.9375,2.5 -0.625,0.625 -1.4063,0.9375 -2.3437,0.9375 H 20 V 40 h 20 c 0.9375,0 1.7188,0.3646 2.3438,1.0938 0.7291,0.625 1.0937,1.4062 1.0937,2.3437 v 10 h 3.2813 c 3.2291,0 5.3645,1.5104 6.4062,4.5313 C 57.7083,53.0729 60,47.0833 60,40 60,38.5417 59.9479,37.4479 59.8438,36.7188 Z M 67.3438,10 V 8.4375 c 0,-1.5625 -0.573,-2.91667 -1.7188,-4.0625 -1.0417,-1.14583 -2.3438,-1.71875 -3.9062,-1.71875 -1.5626,0 -2.9167,0.57292 -4.0626,1.71875 -1.0416,1.14583 -1.5624,2.5 -1.5624,4.0625 V 10 Z M 70,10 c 0.9375,0 1.7188,0.3646 2.3438,1.0938 0.7291,0.625 1.0937,1.4062 1.0937,2.3437 v 13.2813 c 0,0.9374 -0.3646,1.7187 -1.0937,2.3437 C 71.7188,29.6875 70.9375,30 70,30 H 53.4375 C 52.5,30 51.6667,29.6875 50.9375,29.0625 50.3125,28.4375 50,27.6562 50,26.7188 V 13.4375 C 50,12.5 50.3125,11.7188 50.9375,11.0938 51.6667,10.3646 52.5,10 53.4375,10 V 8.4375 C 53.4375,6.14583 54.2188,4.16667 55.7812,2.5 57.4479,0.833333 59.4271,0 61.7188,0 64.0104,0 65.9375,0.833333 67.5,2.5 69.1667,4.16667 70,6.14583 70,8.4375 Z"
     fill="#8c8c8c"
     id="path2" />
</svg>
