<?xml version="1.0" encoding="UTF-8" standalone="no"?>
<svg
   width="73.4375"
   height="46.5625"
   viewBox="0 0 73.4375 46.5625"
   fill="none"
   version="1.1"
   id="svg4"
   sodipodi:docname="08209e35a9530703bdbd5fbdbb13df6e.svg"
   xmlns:inkscape="http://www.inkscape.org/namespaces/inkscape"
   xmlns:sodipodi="http://sodipodi.sourceforge.net/DTD/sodipodi-0.dtd"
   xmlns="http://www.w3.org/2000/svg"
   xmlns:svg="http://www.w3.org/2000/svg">
  <defs
     id="defs8" />
  <sodipodi:namedview
     id="namedview6"
     pagecolor="#ffffff"
     bordercolor="#666666"
     borderopacity="1.0"
     inkscape:pageshadow="2"
     inkscape:pageopacity="0.0"
     inkscape:pagecheckerboard="0" />
  <path
     d="M 46.7188,20 H 63.4375 L 50,6.5625 h -3.2812 z m 4.6874,20.1562 c 1.0417,0.9376 2.2396,1.4063 3.5938,1.4063 1.3542,0 2.5,-0.4687 3.4375,-1.4063 C 59.4792,39.1146 60,37.9167 60,36.5625 60,35.2083 59.4792,34.0625 58.4375,33.125 57.5,32.0833 56.3542,31.5625 55,31.5625 c -1.3542,0 -2.5521,0.5208 -3.5938,1.5625 C 50.4688,34.0625 50,35.2083 50,36.5625 c 0,1.3542 0.4688,2.5521 1.4062,3.5937 z M 40,20 V 6.5625 H 26.7188 V 20 Z M 13.125,40.1562 c 0.9375,0.9376 2.1354,1.4063 3.5938,1.4063 1.4583,0 2.6562,-0.4687 3.5937,-1.4063 0.9375,-1.0416 1.4063,-2.2395 1.4063,-3.5937 0,-1.3542 -0.4688,-2.5 -1.4063,-3.4375 -0.9375,-1.0417 -2.1354,-1.5625 -3.5937,-1.5625 -1.4584,0 -2.6563,0.5208 -3.5938,1.5625 -0.9375,0.9375 -1.4062,2.0833 -1.4062,3.4375 0,1.3542 0.4687,2.5521 1.4062,3.5937 z M 6.71875,20 H 20 V 6.5625 H 6.71875 Z M 53.4375,0 l 20,20 V 36.5625 H 65 c 0,2.7083 -0.9896,5.0521 -2.9688,7.0313 -1.9791,1.9791 -4.3229,2.9687 -7.0312,2.9687 -2.7083,0 -5.0521,-0.9896 -7.0312,-2.9687 C 45.9896,41.6146 45,39.2708 45,36.5625 H 26.7188 c 0,2.7083 -0.9896,5.0521 -2.9688,7.0313 -1.9792,1.9791 -4.3229,2.9687 -7.0312,2.9687 -2.7084,0 -5.0521,-0.9896 -7.0313,-2.9687 C 7.70833,41.6146 6.71875,39.2708 6.71875,36.5625 H 0 v -30 C 0,4.6875 0.625,3.125 1.875,1.875 3.22917,0.625 4.84375,0 6.71875,0 Z"
     fill="#8c8c8c"
     id="path2" />
</svg>
